# xmcd
#
# Track frame offsets:
#  150
#  10460
#  22557
#  32750
#  48885
#  61415
#  81732
#  100805
#  111527
#  132742
#  161655
#  176097
#  195815
#  218087
#  235902
#  266150
#  284045
#  303585
#
# Disc length: 4225 seconds
#
# Revision: 4
# Processed by: cddbd v1.5.2PL0 Copyright (c) Steve Scherf et al.
# Submitted via: Collectorz.com_Music_Collector 6.11
#
DISCID=07107f12
DTITLE=John Mayall - Master Series
DYEAR=1997
DGENRE=Blues
TTITLE0=Crawling Up A Hill - Version 1
TTITLE1=The Hoot Owl (Live)
TTITLE2=Crocodile Walk
TTITLE3=All Your Love
TTITLE4=Dust My Blues
TTITLE5=I Can´t Quit You Baby
TTITLE6=Broken Wings
TTITLE7=She´s Too Young
TTITLE8=The Bear
TTITLE9=The Laws Must Change (Live)
TTITLE10=Don´t Waste My Time
TTITLE11=My Pretty Girl
TTITLE12=Home Again
TTITLE13=Nobody Cares
TTITLE14=Dry Throat (Live)
TTITLE15=Red Sky (Live)
TTITLE16=I Still Care
TTITLE17=Going To Take My Time
EXTD=
EXTT0=
EXTT1=
EXTT2=
EXTT3=
EXTT4=
EXTT5=
EXTT6=
EXTT7=
EXTT8=
EXTT9=
EXTT10=
EXTT11=
EXTT12=
EXTT13=
EXTT14=
EXTT15=
EXTT16=
EXTT17=
PLAYORDER=
